<mxfile host="app.diagrams.net" agent="Mozilla/5.0 (X11; Linux x86_64; rv:134.0) Gecko/20100101 Firefox/134.0" version="26.0.10">
  <diagram name="Page-1" id="Z6sReHTT8oEbwjhytRyn">
    <mxGraphModel dx="1430" dy="744" grid="0" gridSize="10" guides="1" tooltips="1" connect="1" arrows="1" fold="1" page="1" pageScale="1" pageWidth="850" pageHeight="1100" math="0" shadow="0">
      <root>
        <mxCell id="0" />
        <mxCell id="1" parent="0" />
        <mxCell id="UBqbnqqDFoxz05TfTVUA-1" value="&lt;font style=&quot;font-size: 20px;&quot; data-font-src=&quot;https://fonts.googleapis.com/css?family=Caveat&quot; face=&quot;Caveat&quot;&gt;Document&lt;/font&gt;" style="rounded=1;whiteSpace=wrap;html=1;sketch=1;curveFitting=1;jiggle=2;glass=0;gradientColor=none;perimeterSpacing=0;fillStyle=auto;" vertex="1" parent="1">
          <mxGeometry x="145" y="183" width="122" height="40" as="geometry" />
        </mxCell>
        <mxCell id="UBqbnqqDFoxz05TfTVUA-3" value="" style="sketch=1;aspect=fixed;pointerEvents=1;shadow=0;dashed=0;html=1;strokeColor=#99CCFF;labelPosition=center;verticalLabelPosition=bottom;verticalAlign=top;align=center;fillColor=none;shape=mxgraph.mscae.enterprise.document;curveFitting=1;jiggle=2;strokeWidth=1;" vertex="1" parent="1">
          <mxGeometry x="148" y="125" width="36" height="45" as="geometry" />
        </mxCell>
        <mxCell id="UBqbnqqDFoxz05TfTVUA-4" value="" style="sketch=1;aspect=fixed;pointerEvents=1;shadow=0;dashed=0;html=1;strokeColor=#b85450;labelPosition=center;verticalLabelPosition=bottom;verticalAlign=top;align=center;fillColor=#f8cecc;shape=mxgraph.mscae.enterprise.document;curveFitting=1;jiggle=2;strokeWidth=1;" vertex="1" parent="1">
          <mxGeometry x="188" y="125" width="36" height="45" as="geometry" />
        </mxCell>
        <mxCell id="UBqbnqqDFoxz05TfTVUA-5" value="" style="sketch=1;aspect=fixed;pointerEvents=1;shadow=0;dashed=0;html=1;strokeColor=#82b366;labelPosition=center;verticalLabelPosition=bottom;verticalAlign=top;align=center;fillColor=#d5e8d4;shape=mxgraph.mscae.enterprise.document;curveFitting=1;jiggle=2;strokeWidth=1;" vertex="1" parent="1">
          <mxGeometry x="228" y="125" width="36" height="45" as="geometry" />
        </mxCell>
        <mxCell id="UBqbnqqDFoxz05TfTVUA-8" value="" style="group" vertex="1" connectable="0" parent="1">
          <mxGeometry x="194" y="279" width="73" height="78" as="geometry" />
        </mxCell>
        <mxCell id="UBqbnqqDFoxz05TfTVUA-6" value="" style="strokeWidth=2;html=1;shape=mxgraph.flowchart.database;whiteSpace=wrap;sketch=1;curveFitting=1;jiggle=2;" vertex="1" parent="UBqbnqqDFoxz05TfTVUA-8">
          <mxGeometry width="39.81818181818182" height="61.225806451612904" as="geometry" />
        </mxCell>
        <mxCell id="UBqbnqqDFoxz05TfTVUA-7" value="&lt;div&gt;&lt;font data-font-src=&quot;https://fonts.googleapis.com/css?family=Caveat&quot; face=&quot;Caveat&quot;&gt;Vector&lt;/font&gt;&lt;/div&gt;" style="text;html=1;align=center;verticalAlign=middle;whiteSpace=wrap;rounded=0;" vertex="1" parent="UBqbnqqDFoxz05TfTVUA-8">
          <mxGeometry x="23.227272727272727" y="52.83870967741936" width="49.77272727272727" height="25.161290322580648" as="geometry" />
        </mxCell>
        <mxCell id="UBqbnqqDFoxz05TfTVUA-17" style="edgeStyle=orthogonalEdgeStyle;rounded=0;orthogonalLoop=1;jettySize=auto;html=1;exitX=1;exitY=0.5;exitDx=0;exitDy=0;sketch=1;curveFitting=1;jiggle=2;flowAnimation=1;" edge="1" parent="1" source="UBqbnqqDFoxz05TfTVUA-9">
          <mxGeometry relative="1" as="geometry">
            <mxPoint x="176" y="308" as="targetPoint" />
          </mxGeometry>
        </mxCell>
        <mxCell id="UBqbnqqDFoxz05TfTVUA-9" value="&lt;font style=&quot;font-size: 20px;&quot; data-font-src=&quot;https://fonts.googleapis.com/css?family=Caveat&quot; face=&quot;Caveat&quot;&gt;Query&lt;/font&gt;" style="text;html=1;align=center;verticalAlign=middle;whiteSpace=wrap;rounded=0;" vertex="1" parent="1">
          <mxGeometry x="82" y="293" width="60" height="30" as="geometry" />
        </mxCell>
        <mxCell id="UBqbnqqDFoxz05TfTVUA-11" value="&lt;font style=&quot;font-size: 20px;&quot; face=&quot;Caveat&quot; data-font-src=&quot;https://fonts.googleapis.com/css?family=Caveat&quot;&gt;Query&lt;/font&gt;&lt;font style=&quot;font-size: 20px;&quot; data-font-src=&quot;https://fonts.googleapis.com/css?family=Caveat&quot; face=&quot;Caveat&quot;&gt;&lt;br&gt;+ &lt;br&gt;Context&lt;br&gt;&lt;/font&gt;" style="text;html=1;align=center;verticalAlign=middle;whiteSpace=wrap;rounded=0;" vertex="1" parent="1">
          <mxGeometry x="299" y="293" width="60" height="30" as="geometry" />
        </mxCell>
        <mxCell id="UBqbnqqDFoxz05TfTVUA-12" value="&lt;font data-font-src=&quot;https://fonts.googleapis.com/css?family=Caveat&quot; face=&quot;Caveat&quot; style=&quot;font-size: 20px;&quot;&gt;LLM&lt;/font&gt;" style="text;html=1;align=center;verticalAlign=middle;whiteSpace=wrap;rounded=0;" vertex="1" parent="1">
          <mxGeometry x="425" y="345" width="60" height="30" as="geometry" />
        </mxCell>
        <mxCell id="UBqbnqqDFoxz05TfTVUA-13" value="" style="pointerEvents=1;shadow=0;dashed=0;html=1;strokeColor=#10739e;fillColor=#b1ddf0;labelPosition=center;verticalLabelPosition=bottom;verticalAlign=top;align=center;outlineConnect=0;shape=mxgraph.veeam.cpu;sketch=1;curveFitting=1;jiggle=2;" vertex="1" parent="1">
          <mxGeometry x="430.6" y="286" width="44.8" height="44.8" as="geometry" />
        </mxCell>
        <mxCell id="UBqbnqqDFoxz05TfTVUA-14" value="&lt;font style=&quot;font-size: 20px;&quot; face=&quot;Caveat&quot;&gt;Answer&lt;/font&gt;" style="text;html=1;align=center;verticalAlign=middle;whiteSpace=wrap;rounded=0;" vertex="1" parent="1">
          <mxGeometry x="547" y="293" width="60" height="30" as="geometry" />
        </mxCell>
        <mxCell id="UBqbnqqDFoxz05TfTVUA-18" style="edgeStyle=orthogonalEdgeStyle;rounded=0;orthogonalLoop=1;jettySize=auto;html=1;sketch=1;curveFitting=1;jiggle=2;" edge="1" parent="1">
          <mxGeometry relative="1" as="geometry">
            <mxPoint x="298.18" y="309.55" as="targetPoint" />
            <mxPoint x="257" y="310" as="sourcePoint" />
          </mxGeometry>
        </mxCell>
        <mxCell id="UBqbnqqDFoxz05TfTVUA-22" style="edgeStyle=orthogonalEdgeStyle;rounded=0;orthogonalLoop=1;jettySize=auto;html=1;sketch=1;curveFitting=1;jiggle=2;" edge="1" parent="1">
          <mxGeometry relative="1" as="geometry">
            <mxPoint x="411.18000000000006" y="307.52000000000004" as="targetPoint" />
            <mxPoint x="370" y="307.97" as="sourcePoint" />
          </mxGeometry>
        </mxCell>
        <mxCell id="UBqbnqqDFoxz05TfTVUA-23" style="edgeStyle=orthogonalEdgeStyle;rounded=0;orthogonalLoop=1;jettySize=auto;html=1;sketch=1;curveFitting=1;jiggle=2;" edge="1" parent="1">
          <mxGeometry relative="1" as="geometry">
            <mxPoint x="534.1800000000001" y="307.90000000000003" as="targetPoint" />
            <mxPoint x="493" y="308.35" as="sourcePoint" />
          </mxGeometry>
        </mxCell>
        <mxCell id="UBqbnqqDFoxz05TfTVUA-25" style="edgeStyle=orthogonalEdgeStyle;rounded=0;orthogonalLoop=1;jettySize=auto;html=1;sketch=1;curveFitting=1;jiggle=2;" edge="1" parent="1">
          <mxGeometry relative="1" as="geometry">
            <mxPoint x="210" y="229" as="targetPoint" />
            <mxPoint x="209.90999999999997" y="266.45" as="sourcePoint" />
          </mxGeometry>
        </mxCell>
      </root>
    </mxGraphModel>
  </diagram>
</mxfile>
